<?xml version="1.0" standalone="no"?>
<!DOCTYPE svg PUBLIC "-//W3C//DTD SVG 20010904//EN"
 "http://www.w3.org/TR/2001/REC-SVG-20010904/DTD/svg10.dtd">
<svg version="1.0" xmlns="http://www.w3.org/2000/svg"
 width="180.000000pt" height="180.000000pt" viewBox="0 0 180.000000 180.000000"
 preserveAspectRatio="xMidYMid meet">
<metadata>
Created by potrace 1.15, written by Peter Selinger 2001-2017
</metadata>
<g transform="translate(0.000000,180.000000) scale(0.100000,-0.100000)"
fill="#000000" stroke="none">
<path d="M785 1465 c-33 -6 -99 -24 -148 -39 l-87 -28 17 -29 c20 -34 19 -34
69 -13 22 9 81 25 132 35 186 37 423 19 584 -46 12 -5 21 2 33 24 8 17 14 31
13 31 -2 0 -37 12 -78 26 -41 14 -109 32 -150 40 -90 17 -300 17 -385 -1z"/>
<path d="M427 1333 c-26 -13 -27 -16 -15 -36 14 -22 76 -122 242 -393 47 -77
86 -146 86 -152 0 -7 -16 -12 -39 -12 -112 0 -213 -101 -213 -212 0 -101 96
-197 206 -206 97 -8 199 66 226 165 22 76 29 62 -295 588 -189 307 -165 276
-198 258z m364 -686 c43 -29 59 -60 59 -117 0 -57 -16 -88 -59 -117 -41 -28
-117 -31 -162 -8 -89 47 -93 193 -6 245 46 28 124 27 168 -3z"/>
<path d="M870 1243 c-19 -2 -68 -13 -107 -24 -40 -10 -75 -19 -78 -19 -10 0
-5 -21 10 -44 l15 -23 73 18 c98 25 286 25 385 0 l72 -18 20 31 19 31 -27 8
c-106 31 -149 39 -242 42 -58 2 -121 1 -140 -2z"/>
<path d="M837 997 l-37 -12 19 -31 18 -30 72 10 c45 6 96 6 140 0 l68 -9 17
29 c9 16 15 31 12 33 -23 23 -244 30 -309 10z"/>
</g>
</svg>
